<?xml version="1.0" encoding="UTF-8"?>
<svg xmlns="http://www.w3.org/2000/svg" xmlns:xlink="http://www.w3.org/1999/xlink" width="1254pt" height="822pt" viewBox="0 0 1254 822" version="1.1">
<g id="surface1">
<path style=" stroke:none;fill-rule:nonzero;fill:rgb(0%,0%,0%);fill-opacity:1;" d="M 0 411 L 0 822 L 1254 822 L 1254 0 L 0 0 Z M 215.800781 342.199219 C 216.707031 343.105469 217 357.800781 217 402.199219 L 217 461 L 348 461 L 348.648438 463.550781 C 349.007812 464.949219 348.871094 466.527344 348.351562 467.050781 C 347.773438 467.625 320.148438 467.902344 278.449219 467.75 L 209.5 467.5 L 209.25 405.050781 C 209.054688 355.75 209.253906 342.4375 210.199219 341.835938 C 212 340.691406 214.449219 340.851562 215.800781 342.199219 Z M 328.453125 347 C 328.78125 347.539062 328.601562 348.140625 328 348.5 C 327.46875 348.820312 327 348.398438 327 347.601562 C 327 345.800781 327.582031 345.558594 328.453125 347 Z M 243 348 C 243 348.601562 242.601562 349 242 349 C 241.398438 349 241 348.601562 241 348 C 241 347.398438 241.398438 347 242 347 C 242.601562 347 243 347.398438 243 348 Z M 285 348 C 285 348.601562 284.601562 349 284 349 C 283.398438 349 283 348.601562 283 348 C 283 347.398438 283.398438 347 284 347 C 284.601562 347 285 347.398438 285 348 Z M 243 352.601562 C 243 353.398438 242.53125 353.820312 242 353.5 C 241.398438 353.140625 241.21875 352.539062 241.546875 352 C 242.417969 350.558594 243 350.800781 243 352.601562 Z M 285 352.601562 C 285 353.398438 284.53125 353.820312 284 353.5 C 283.398438 353.140625 283.21875 352.539062 283.546875 352 C 284.417969 350.558594 285 350.800781 285 352.601562 Z M 328.453125 352 C 328.78125 352.539062 328.601562 353.140625 328 353.5 C 327.46875 353.820312 327 353.398438 327 352.601562 C 327 350.800781 327.582031 350.558594 328.453125 352 Z M 242.601562 357.699219 C 241.613281 358.6875 240.773438 357.199219 241.589844 355.898438 C 242.214844 354.898438 242.492188 354.886719 242.800781 355.851562 C 243.023438 356.550781 242.9375 357.363281 242.601562 357.699219 Z M 284.601562 357.699219 C 283.613281 358.6875 282.773438 357.199219 283.589844 355.898438 C 284.214844 354.898438 284.492188 354.886719 284.800781 355.851562 C 285.023438 356.550781 284.9375 357.363281 284.601562 357.699219 Z M 336.183594 360.898438 C 340.367188 365.558594 340.144531 371.800781 335.617188 376.699219 C 332.644531 379.917969 331.601562 380.40625 327.601562 380.449219 C 323.066406 380.5 322.929688 380.601562 318.039062 387.398438 C 313.15625 394.199219 311.910156 397.976562 316.265625 392.800781 C 319.175781 389.335938 322 388 326.398438 388 C 331.492188 388 336.929688 393.101562 337.59375 398.5 C 338.578125 406.5 330.972656 413.195312 323.300781 411.085938 C 319 409.902344 315 406.390625 315 403.800781 C 315 402.378906 314.199219 402 311.199219 402 C 307.621094 402 307.085938 402.449219 301.949219 409.75 L 296.5 417.5 L 297.914062 421.601562 C 299.675781 426.699219 298.855469 430.347656 295.101562 434.101562 C 292.644531 436.554688 291.398438 437 287 437 C 282.601562 437 281.363281 436.554688 278.949219 434.101562 C 277.191406 432.308594 275.851562 429.648438 275.449219 427.148438 C 274.859375 423.476562 274.351562 422.910156 269.949219 421.050781 C 267.25 419.910156 264.8125 419 264.449219 419 C 264.09375 419 261.050781 421.453125 257.75 424.398438 C 251.75 429.753906 251.699219 429.847656 251.601562 435.5 C 251.511719 440.601562 251.15625 441.503906 248.25 444.101562 C 245.597656 446.46875 244.101562 447 240.101562 447 C 234.300781 447 230.691406 444.558594 229.023438 439.5 C 226.542969 432 231.746094 424 239.101562 424 C 241.300781 424 243.863281 424.40625 244.800781 424.898438 C 246.101562 425.589844 247.851562 424.566406 252.25 420.550781 L 258 415.300781 L 254.050781 413.75 C 250.351562 412.296875 249.992188 412.320312 248.398438 414.101562 C 247.164062 415.480469 245.351562 416 241.75 416 C 237.449219 416 236.339844 415.539062 233.300781 412.5 C 229.992188 409.191406 229.824219 408.699219 230.25 403.5 C 230.59375 399.300781 230.367188 398 229.300781 398 C 228.5 398 228.179688 397.527344 228.550781 396.898438 C 229.023438 396.101562 229.484375 396.085938 230.25 396.851562 C 230.960938 397.5625 232.25 397.109375 234.25 395.449219 C 236.414062 393.652344 238.398438 393 241.699219 393 C 245.5 393 246.730469 393.527344 249.601562 396.398438 C 252 398.800781 253 400.710938 253 402.898438 C 253 405.621094 253.601562 406.304688 257.898438 408.5 L 262.800781 411 L 267.898438 406.398438 C 272.699219 402.070312 273 401.507812 273 396.800781 C 273 387.898438 279.726562 382.421875 287.5 384.988281 C 290.601562 386.011719 295.253906 390.261719 296.15625 392.898438 C 296.347656 393.460938 298.300781 394.183594 300.601562 394.550781 L 304.699219 395.199219 L 311.050781 386.351562 C 314.566406 381.449219 317.304688 376.828125 317.1875 376 C 315.753906 365.800781 315.839844 364.398438 318.070312 361.601562 C 320.984375 357.949219 323.601562 356.949219 329 357.417969 C 332.398438 357.714844 334.03125 358.503906 336.183594 360.898438 Z M 243 361.601562 C 243 362.398438 242.53125 362.820312 242 362.5 C 241.398438 362.140625 241.21875 361.539062 241.546875 361 C 242.417969 359.558594 243 359.800781 243 361.601562 Z M 285 361.601562 C 285 362.398438 284.53125 362.820312 284 362.5 C 283.398438 362.140625 283.21875 361.539062 283.546875 361 C 284.417969 359.558594 285 359.800781 285 361.601562 Z M 242.601562 366.699219 C 241.613281 367.6875 240.773438 366.199219 241.589844 364.898438 C 242.214844 363.898438 242.492188 363.886719 242.800781 364.851562 C 243.023438 365.550781 242.9375 366.363281 242.601562 366.699219 Z M 224 366 C 224 366.601562 223.601562 367 223 367 C 222.398438 367 222 366.601562 222 366 C 222 365.398438 222.398438 365 223 365 C 223.601562 365 224 365.398438 224 366 Z M 229 366 C 229 366.601562 228.601562 367 228 367 C 227.398438 367 227 366.601562 227 366 C 227 365.398438 227.398438 365 228 365 C 228.601562 365 229 365.398438 229 366 Z M 234 366 C 234 366.601562 233.601562 367 233 367 C 232.398438 367 232 366.601562 232 366 C 232 365.398438 232.398438 365 233 365 C 233.601562 365 234 365.398438 234 366 Z M 239 366 C 239 366.601562 238.601562 367 238 367 C 237.398438 367 237 366.601562 237 366 C 237 365.398438 237.398438 365 238 365 C 238.601562 365 239 365.398438 239 366 Z M 247 366 C 247 366.601562 246.601562 367 246 367 C 245.398438 367 245 366.601562 245 366 C 245 365.398438 245.398438 365 246 365 C 246.601562 365 247 365.398438 247 366 Z M 251 366 C 251 366.601562 250.601562 367 250 367 C 249.398438 367 249 366.601562 249 366 C 249 365.398438 249.398438 365 250 365 C 250.601562 365 251 365.398438 251 366 Z M 256 366 C 256 366.53125 255.300781 367 254.5 367 C 253.699219 367 253 366.53125 253 366 C 253 365.46875 253.699219 365 254.5 365 C 255.300781 365 256 365.46875 256 366 Z M 260 366 C 260 366.601562 259.601562 367 259 367 C 258.398438 367 258 366.601562 258 366 C 258 365.398438 258.398438 365 259 365 C 259.601562 365 260 365.398438 260 366 Z M 265 366 C 265 366.53125 264.300781 367 263.5 367 C 262.699219 367 262 366.53125 262 366 C 262 365.46875 262.699219 365 263.5 365 C 264.300781 365 265 365.46875 265 366 Z M 269 366 C 269 366.601562 268.601562 367 268 367 C 267.398438 367 267 366.601562 267 366 C 267 365.398438 267.398438 365 268 365 C 268.601562 365 269 365.398438 269 366 Z M 274 366 C 274 366.53125 273.300781 367 272.5 367 C 271.699219 367 271 366.53125 271 366 C 271 365.46875 271.699219 365 272.5 365 C 273.300781 365 274 365.46875 274 366 Z M 278 366 C 278 366.601562 277.601562 367 277 367 C 276.398438 367 276 366.601562 276 366 C 276 365.398438 276.398438 365 277 365 C 277.601562 365 278 365.398438 278 366 Z M 283 366 C 283 366.53125 282.300781 367 281.5 367 C 280.699219 367 280 366.53125 280 366 C 280 365.46875 280.699219 365 281.5 365 C 282.300781 365 283 365.46875 283 366 Z M 287 366 C 287 366.601562 286.601562 367 286 367 C 285.398438 367 285 366.601562 285 366 C 285 365.398438 285.398438 365 286 365 C 286.601562 365 287 365.398438 287 366 Z M 291 366 C 291 366.601562 290.601562 367 290 367 C 289.398438 367 289 366.601562 289 366 C 289 365.398438 289.398438 365 290 365 C 290.601562 365 291 365.398438 291 366 Z M 296 366 C 296 366.601562 295.601562 367 295 367 C 294.398438 367 294 366.601562 294 366 C 294 365.398438 294.398438 365 295 365 C 295.601562 365 296 365.398438 296 366 Z M 300.5 366 C 300.847656 366.578125 300.449219 367 299.550781 367 C 298.648438 367 298 366.578125 298 366 C 298 365.398438 298.378906 365 298.949219 365 C 299.519531 365 300.140625 365.398438 300.5 366 Z M 305 366 C 305 366.601562 304.601562 367 304 367 C 303.398438 367 303 366.601562 303 366 C 303 365.398438 303.398438 365 304 365 C 304.601562 365 305 365.398438 305 366 Z M 309 366 C 309 366.601562 308.601562 367 308 367 C 307.398438 367 307 366.601562 307 366 C 307 365.398438 307.398438 365 308 365 C 308.601562 365 309 365.398438 309 366 Z M 314 366 C 314 366.601562 313.601562 367 313 367 C 312.398438 367 312 366.601562 312 366 C 312 365.398438 312.398438 365 313 365 C 313.601562 365 314 365.398438 314 366 Z M 808.800781 366.679688 C 810.910156 367.25 811.074219 367.800781 810.800781 373.398438 L 810.5 379.5 L 806.800781 379.199219 C 803.898438 378.964844 802.550781 379.441406 800.550781 381.398438 C 799.148438 382.773438 798 384.824219 798 385.949219 C 798 387.753906 798.601562 388 803 388 L 808 388 L 808 401 L 798 401 L 798 442 L 783 442 L 783 401 L 776 401 L 776 388 L 779.5 388 C 782.800781 388 783 387.816406 783 384.800781 C 783 380.398438 786.601562 373.441406 790.199219 370.882812 C 796 366.757812 803.121094 365.148438 808.800781 366.679688 Z M 610.25 387.949219 L 610.5 408.898438 L 619.351562 397.949219 L 628.199219 387 L 637.101562 387 C 642 387 645.976562 387.335938 645.949219 387.75 C 645.921875 388.160156 641.15625 393.898438 635.449219 400.398438 C 629.742188 406.898438 625 412.640625 625 413.050781 C 625 413.464844 629.542969 419.550781 635.148438 426.648438 C 640.757812 433.75 645.726562 440.058594 646.25 440.75 C 646.992188 441.726562 645.148438 441.988281 637.851562 441.949219 L 628.5 441.898438 L 623 434.898438 C 619.9375 431 616.945312 427.167969 616.25 426.25 C 615.101562 424.730469 614.800781 424.789062 612.5 426.949219 C 610.335938 428.984375 610 430.148438 610 435.648438 L 610 442 L 594 442 L 594 367 L 610 367 Z M 737 404.5 L 737 442 L 721 442 L 721 367 L 737 367 Z M 1008 404.5 L 1008 442 L 1000 442 C 992.898438 442 992 441.792969 992 440.148438 C 992 438.449219 991.601562 438.496094 987 440.769531 C 976.300781 446.054688 961.566406 442.636719 954.355469 433.199219 C 946.179688 422.5 946.589844 405.230469 955.257812 395.398438 C 960.136719 389.867188 965.601562 386.976562 972.5 386.28125 C 979.398438 385.582031 983.988281 386.503906 988.398438 389.476562 L 992 391.898438 L 992 367 L 1008 367 Z M 243 370.550781 C 243 371.449219 242.578125 371.847656 242 371.5 C 241.398438 371.140625 241 370.519531 241 369.949219 C 241 369.378906 241.398438 369 242 369 C 242.578125 369 243 369.648438 243 370.550781 Z M 285 370.601562 C 285 371.398438 284.53125 371.820312 284 371.5 C 283.398438 371.140625 283.21875 370.539062 283.546875 370 C 284.417969 368.558594 285 368.800781 285 370.601562 Z M 242.601562 375.699219 C 241.613281 376.6875 240.773438 375.199219 241.589844 373.898438 C 242.214844 372.898438 242.492188 372.886719 242.800781 373.851562 C 243.023438 374.550781 242.9375 375.363281 242.601562 375.699219 Z M 284.601562 375.699219 C 283.613281 376.6875 282.773438 375.199219 283.589844 373.898438 C 284.214844 372.898438 284.492188 372.886719 284.800781 373.851562 C 285.023438 374.550781 284.9375 375.363281 284.601562 375.699219 Z M 243 379.550781 C 243 380.449219 242.578125 380.847656 242 380.5 C 241.398438 380.140625 241 379.519531 241 378.949219 C 241 378.378906 241.398438 378 242 378 C 242.578125 378 243 378.648438 243 379.550781 Z M 285 379.550781 C 285 380.449219 284.578125 380.847656 284 380.5 C 283.398438 380.140625 283 379.519531 283 378.949219 C 283 378.378906 283.398438 378 284 378 C 284.578125 378 285 378.648438 285 379.550781 Z M 243 383.601562 C 243 384.398438 242.53125 384.820312 242 384.5 C 241.398438 384.140625 241.21875 383.539062 241.546875 383 C 242.417969 381.558594 243 381.800781 243 383.601562 Z M 328.453125 383 C 328.78125 383.539062 328.601562 384.140625 328 384.5 C 327.46875 384.820312 327 384.398438 327 383.601562 C 327 381.800781 327.582031 381.558594 328.453125 383 Z M 436.601562 389.589844 C 439.519531 391.265625 441.519531 393.449219 443.148438 396.75 C 445.34375 401.183594 445.523438 402.851562 445.851562 421.75 L 446.199219 442 L 430 442 L 430 423.648438 C 430 406.648438 429.851562 405.109375 427.96875 402.699219 C 423.820312 397.382812 413.925781 398.5 411.140625 404.601562 C 410.441406 406.132812 410 413.851562 410 424.550781 L 410 442 L 394 442 L 394.5 387.5 L 401.851562 387.199219 C 408.550781 386.925781 409.242188 387.078125 409.699219 388.898438 C 410.183594 390.835938 410.300781 390.847656 413.300781 389.300781 C 420.699219 385.476562 429.632812 385.585938 436.601562 389.589844 Z M 499.398438 388.871094 C 505.101562 391.394531 510.476562 396.261719 513.792969 401.898438 C 516.128906 405.867188 516.5 407.601562 516.5 414.5 C 516.5 423.800781 514.699219 428.300781 508.5 434.5 C 502.601562 440.398438 497.898438 442.34375 488.398438 442.8125 C 478.101562 443.320312 472.164062 441.015625 465.488281 433.898438 C 459.519531 427.539062 457.667969 423.101562 457.566406 414.898438 C 457.308594 394.5 480.09375 380.324219 499.398438 388.871094 Z M 569.800781 388.777344 C 573.851562 390.664062 577.445312 395.300781 578.890625 400.5 C 579.503906 402.71875 580 412.851562 580 423.25 L 580 442 L 564 442 L 564 423.449219 C 564 413.25 563.566406 404.089844 563.039062 403.101562 C 560.472656 398.300781 551.203125 398.011719 546.925781 402.601562 C 544.566406 405.128906 544.492188 405.699219 544.148438 423.601562 L 543.800781 442 L 529 442 L 529 387 L 536.5 387 C 543.300781 387 544 387.1875 544 389 C 544 391.398438 544.398438 391.441406 547.601562 389.363281 C 553.054688 385.820312 562.898438 385.5625 569.800781 388.777344 Z M 693.5 389.429688 C 698.800781 391.859375 704.277344 396.816406 706.613281 401.300781 C 708.644531 405.199219 710.21875 414.554688 709.4375 418.101562 L 708.800781 421 L 687.898438 421 C 665.601562 421 664.429688 421.300781 669.300781 425.738281 C 674.875 430.820312 685.398438 431.210938 691.5 426.566406 L 695 423.898438 L 700.5 427 C 703.5 428.691406 706 430.417969 706 430.800781 C 706 432.515625 698.199219 439.070312 694 440.882812 C 687.46875 443.703125 681.898438 444.328125 675.300781 442.976562 C 659.699219 439.78125 651 429.585938 651 414.5 C 651 404.5 655.609375 396.09375 663.699219 391.347656 C 673.300781 385.710938 683.898438 385.027344 693.5 389.429688 Z M 857.5 389.519531 C 879.710938 400.046875 879 430.347656 856.300781 440.726562 C 836.457031 449.800781 812.460938 433.898438 814.304688 412.898438 C 816.113281 392.300781 838.171875 380.359375 857.5 389.519531 Z M 927.5 389.34375 C 929.988281 390.6875 932.445312 393.199219 934 396 C 936.410156 400.335938 936.511719 401.25 936.800781 421.25 L 937.101562 442 L 921 442 L 921 423.550781 C 921 405.449219 920.953125 405.046875 918.601562 402.300781 C 916.617188 399.988281 915.398438 399.5 911.601562 399.5 C 907.898438 399.5 906.460938 400.039062 904.25 402.25 L 901.5 405 L 900.898438 442 L 885 442 L 885.5 387.5 L 893.25 387.199219 C 900.550781 386.917969 901 387.023438 901 389 C 901 391.035156 901.101562 391.046875 904.199219 389.425781 C 911.601562 385.554688 920.410156 385.523438 927.5 389.34375 Z M 1058.800781 390.09375 C 1062.199219 391.742188 1065 393.640625 1065 394.300781 C 1065 394.945312 1063.230469 397.550781 1061.148438 399.949219 L 1057.300781 404.398438 L 1053.398438 402.511719 C 1047.800781 399.800781 1038.839844 399.261719 1036.601562 401.5 C 1034.851562 403.25 1034.851562 403.347656 1036.648438 405 C 1037.660156 405.929688 1042.300781 407.445312 1046.898438 408.351562 C 1051.5 409.253906 1056.929688 410.796875 1058.898438 411.761719 C 1069.300781 416.851562 1069.878906 433.074219 1059.898438 439.703125 C 1052.628906 444.53125 1037 444.445312 1026.601562 439.523438 C 1018.601562 435.738281 1018.371094 435.140625 1022.71875 429.398438 L 1026.5 424.398438 L 1031.699219 426.761719 C 1038.898438 430.03125 1046.199219 430.789062 1049.5 428.609375 C 1054.628906 425.230469 1052.398438 422.996094 1042 421.09375 C 1029.5 418.804688 1024.140625 416.125 1021.398438 410.800781 C 1019.449219 407 1019.699219 399.101562 1021.898438 395 C 1026.710938 386.015625 1045.300781 383.546875 1058.800781 390.09375 Z M 243 388.550781 C 243 389.449219 242.578125 389.847656 242 389.5 C 241.398438 389.140625 241 388.519531 241 387.949219 C 241 387.378906 241.398438 387 242 387 C 242.578125 387 243 387.648438 243 388.550781 Z M 226 397 C 226 397.601562 225.601562 398 225 398 C 224.398438 398 224 397.601562 224 397 C 224 396.398438 224.398438 396 225 396 C 225.601562 396 226 396.398438 226 397 Z M 257.5 397 C 257.839844 397.5625 257.398438 398 256.5 398 C 255.601562 398 255.164062 397.5625 255.5 397 C 255.859375 396.398438 256.261719 396 256.5 396 C 256.738281 396 257.140625 396.398438 257.5 397 Z M 262 397 C 262 397.601562 261.601562 398 261 398 C 260.398438 398 260 397.601562 260 397 C 260 396.398438 260.398438 396 261 396 C 261.601562 396 262 396.398438 262 397 Z M 266.5 397 C 266.839844 397.5625 266.398438 398 265.5 398 C 264.601562 398 264.164062 397.5625 264.5 397 C 264.859375 396.398438 265.261719 396 265.5 396 C 265.738281 396 266.140625 396.398438 266.5 397 Z M 271 397 C 271 397.601562 270.601562 398 270 398 C 269.398438 398 269 397.601562 269 397 C 269 396.398438 269.398438 396 270 396 C 270.601562 396 271 396.398438 271 397 Z M 328.5 415 C 328.84375 415.570312 328.648438 416 328.050781 416 C 327.449219 416 327 415.570312 327 415 C 327 414.398438 327.179688 414 327.449219 414 C 327.71875 414 328.140625 414.398438 328.5 415 Z M 243 419.601562 C 243 420.398438 242.53125 420.820312 242 420.5 C 241.398438 420.140625 241.21875 419.539062 241.546875 419 C 242.417969 417.558594 243 417.800781 243 419.601562 Z M 328.453125 419 C 328.78125 419.539062 328.601562 420.140625 328 420.5 C 327.46875 420.820312 327 420.398438 327 419.601562 C 327 417.800781 327.582031 417.558594 328.453125 419 Z M 328.5 424 C 328.84375 424.570312 328.648438 425 328.050781 425 C 327.449219 425 327 424.570312 327 424 C 327 423.398438 327.179688 423 327.449219 423 C 327.71875 423 328.140625 423.398438 328.5 424 Z M 228 428 C 228 428.601562 227.601562 429 227 429 C 226.398438 429 226 428.601562 226 428 C 226 427.398438 226.398438 427 227 427 C 227.601562 427 228 427.398438 228 428 Z M 259.5 428 C 259.847656 428.578125 259.449219 429 258.550781 429 C 257.648438 429 257 428.578125 257 428 C 257 427.398438 257.378906 427 257.949219 427 C 258.519531 427 259.140625 427.398438 259.5 428 Z M 263.5 428 C 263.84375 428.570312 263.648438 429 263.050781 429 C 262.449219 429 262 428.570312 262 428 C 262 427.398438 262.179688 427 262.449219 427 C 262.71875 427 263.140625 427.398438 263.5 428 Z M 268.5 428 C 268.847656 428.578125 268.449219 429 267.550781 429 C 266.648438 429 266 428.578125 266 428 C 266 427.398438 266.378906 427 266.949219 427 C 267.519531 427 268.140625 427.398438 268.5 428 Z M 273 428 C 273 428.578125 272.351562 429 271.449219 429 C 270.550781 429 270.152344 428.578125 270.5 428 C 270.859375 427.398438 271.480469 427 272.050781 427 C 272.621094 427 273 427.398438 273 428 Z M 304 428 C 304 428.601562 303.601562 429 303 429 C 302.398438 429 302 428.601562 302 428 C 302 427.398438 302.398438 427 303 427 C 303.601562 427 304 427.398438 304 428 Z M 308.5 428 C 308.839844 428.5625 308.398438 429 307.5 429 C 306.601562 429 306.164062 428.5625 306.5 428 C 306.859375 427.398438 307.261719 427 307.5 427 C 307.738281 427 308.140625 427.398438 308.5 428 Z M 313 428 C 313 428.601562 312.601562 429 312 429 C 311.398438 429 311 428.601562 311 428 C 311 427.398438 311.398438 427 312 427 C 312.601562 427 313 427.398438 313 428 Z M 317.5 428 C 317.839844 428.5625 317.398438 429 316.5 429 C 315.601562 429 315.164062 428.5625 315.5 428 C 315.859375 427.398438 316.261719 427 316.5 427 C 316.738281 427 317.140625 427.398438 317.5 428 Z M 322 428 C 322 428.601562 321.601562 429 321 429 C 320.398438 429 320 428.601562 320 428 C 320 427.398438 320.398438 427 321 427 C 321.601562 427 322 427.398438 322 428 Z M 326.5 428 C 326.839844 428.5625 326.398438 429 325.5 429 C 324.601562 429 324.164062 428.5625 324.5 428 C 324.859375 427.398438 325.261719 427 325.5 427 C 325.738281 427 326.140625 427.398438 326.5 428 Z M 331 428 C 331 428.601562 330.601562 429 330 429 C 329.398438 429 329 428.601562 329 428 C 329 427.398438 329.398438 427 330 427 C 330.601562 427 331 427.398438 331 428 Z M 335.5 428 C 335.839844 428.5625 335.398438 429 334.5 429 C 333.601562 429 333.164062 428.5625 333.5 428 C 333.859375 427.398438 334.261719 427 334.5 427 C 334.738281 427 335.140625 427.398438 335.5 428 Z M 339.5 428 C 339.84375 428.570312 339.648438 429 339.050781 429 C 338.449219 429 338 428.570312 338 428 C 338 427.398438 338.179688 427 338.449219 427 C 338.71875 427 339.140625 427.398438 339.5 428 Z M 329 433 C 329 433.601562 328.601562 434 328 434 C 327.398438 434 327 433.601562 327 433 C 327 432.398438 327.398438 432 328 432 C 328.601562 432 329 432.398438 329 433 Z M 328.453125 437 C 328.78125 437.539062 328.601562 438.140625 328 438.5 C 327.46875 438.820312 327 438.398438 327 437.601562 C 327 435.800781 327.582031 435.558594 328.453125 437 Z M 285 442 C 285 442.601562 284.601562 443 284 443 C 283.398438 443 283 442.601562 283 442 C 283 441.398438 283.398438 441 284 441 C 284.601562 441 285 441.398438 285 442 Z M 329 442 C 329 442.601562 328.601562 443 328 443 C 327.398438 443 327 442.601562 327 442 C 327 441.398438 327.398438 441 328 441 C 328.601562 441 329 441.398438 329 442 Z M 285 446.601562 C 285 447.398438 284.53125 447.820312 284 447.5 C 283.398438 447.140625 283.21875 446.539062 283.546875 446 C 284.417969 444.558594 285 444.800781 285 446.601562 Z M 328.453125 446 C 328.78125 446.539062 328.601562 447.140625 328 447.5 C 327.46875 447.820312 327 447.398438 327 446.601562 C 327 444.800781 327.582031 444.558594 328.453125 446 Z M 243 451 C 243 451.601562 242.601562 452 242 452 C 241.398438 452 241 451.601562 241 451 C 241 450.398438 241.398438 450 242 450 C 242.601562 450 243 450.398438 243 451 Z M 285 451 C 285 451.601562 284.601562 452 284 452 C 283.398438 452 283 451.601562 283 451 C 283 450.398438 283.398438 450 284 450 C 284.601562 450 285 450.398438 285 451 Z M 329 450.449219 C 329 450.71875 328.601562 451.140625 328 451.5 C 327.429688 451.84375 327 451.648438 327 451.050781 C 327 450.449219 327.429688 450 328 450 C 328.601562 450 329 450.179688 329 450.449219 "/>
<path style=" stroke:none;fill-rule:nonzero;fill:rgb(0%,0%,0%);fill-opacity:1;" d="M 324 365 C 322.898438 366.101562 322 367.808594 322 368.800781 C 322 371.171875 325.101562 374 327.699219 374 C 330.101562 374 333 371.101562 333 368.699219 C 333 366.601562 329.527344 363 327.5 363 C 326.675781 363 325.101562 363.898438 324 365 "/>
<path style=" stroke:none;fill-rule:nonzero;fill:rgb(0%,0%,0%);fill-opacity:1;" d="M 280.5 392.621094 C 278.285156 394.824219 279 399.183594 281.800781 400.570312 C 284.898438 402.109375 287.492188 401.273438 288.855469 398.300781 C 291.289062 393 284.648438 388.484375 280.5 392.621094 "/>
<path style=" stroke:none;fill-rule:nonzero;fill:rgb(0%,0%,0%);fill-opacity:1;" d="M 323.199219 395.5625 C 320.800781 397.269531 320.246094 401.84375 322.199219 403.800781 C 322.847656 404.445312 324.601562 405 326 405 C 329.332031 405 331 403.300781 331 399.898438 C 331 397.5 328.035156 394 326 394 C 325.671875 394 324.398438 394.710938 323.199219 395.5625 "/>
<path style=" stroke:none;fill-rule:nonzero;fill:rgb(0%,0%,0%);fill-opacity:1;" d="M 239.300781 399.984375 C 234.8125 401.792969 235.699219 408.363281 240.601562 409.59375 C 243.5 410.320312 247 407.753906 247 404.898438 C 247 403.101562 243.59375 398.949219 242.199219 399.050781 C 241.816406 399.078125 240.5 399.503906 239.300781 399.984375 "/>
<path style=" stroke:none;fill-rule:nonzero;fill:rgb(0%,0%,0%);fill-opacity:1;" d="M 292.25 404.699219 C 289.054688 408.242188 288.898438 408.289062 282.898438 407.75 C 277.101562 407.226562 276.621094 407.363281 273.199219 410.5 L 269.601562 413.800781 L 273.550781 415.800781 C 277.449219 417.773438 277.53125 417.777344 279.851562 415.898438 C 281.363281 414.675781 283.75 414 286.550781 414 C 290.648438 414 291.121094 413.699219 294.738281 408.800781 C 300.425781 401.101562 300.464844 401 297.800781 401.054688 C 296.457031 401.082031 294.144531 402.601562 292.25 404.699219 Z M 285 410.601562 C 285 411.398438 284.53125 411.820312 284 411.5 C 283.398438 411.140625 283.21875 410.539062 283.546875 410 C 284.417969 408.558594 285 408.800781 285 410.601562 "/>
<path style=" stroke:none;fill-rule:nonzero;fill:rgb(0%,0%,0%);fill-opacity:1;" d="M 284.398438 420.734375 C 278.984375 424.402344 282.699219 432.46875 288.898438 430.5 C 290.949219 429.851562 292.554688 426.601562 292.105469 424 C 291.574219 420.898438 287.011719 418.96875 284.398438 420.734375 "/>
<path style=" stroke:none;fill-rule:nonzero;fill:rgb(0%,0%,0%);fill-opacity:1;" d="M 237.699219 430.714844 C 234.085938 431.632812 234.398438 439.339844 238.101562 440.519531 C 243.699219 442.304688 247.421875 436.105469 243.574219 431.398438 C 243.105469 430.828125 239.101562 430.359375 237.699219 430.714844 "/>
<path style=" stroke:none;fill-rule:nonzero;fill:rgb(0%,0%,0%);fill-opacity:1;" d="M 968.300781 403.398438 C 964.839844 406.578125 964.574219 407.25 964.199219 413.75 C 963.820312 420.351562 963.960938 420.882812 966.953125 424.300781 C 974.195312 432.574219 987.5625 431 991.570312 421.398438 C 993.386719 417.050781 993.324219 412.898438 991.378906 408 C 989.21875 402.566406 984.800781 400 977.601562 400 C 972.601562 400 971.605469 400.363281 968.300781 403.398438 "/>
<path style=" stroke:none;fill-rule:nonzero;fill:rgb(0%,0%,0%);fill-opacity:1;" d="M 480.199219 401.652344 C 473.296875 405.078125 470.464844 415.898438 474.609375 423 C 476.777344 426.710938 482.601562 430 487 430 C 492.300781 430 497.910156 426.429688 500.046875 421.699219 C 502.488281 416.300781 502.457031 412.851562 499.933594 407.898438 C 496.222656 400.628906 487.699219 397.929688 480.199219 401.652344 "/>
<path style=" stroke:none;fill-rule:nonzero;fill:rgb(0%,0%,0%);fill-opacity:1;" d="M 672.300781 401.976562 C 669.199219 403.863281 667 406.734375 667 408.898438 C 667 409.617188 671.5 410 680 410 C 693.898438 410 694.59375 409.707031 691.421875 405.199219 C 687.761719 400 678.199219 398.386719 672.300781 401.976562 "/>
<path style=" stroke:none;fill-rule:nonzero;fill:rgb(0%,0%,0%);fill-opacity:1;" d="M 837 401.8125 C 832.183594 404.320312 828.683594 411.101562 829.476562 416.398438 C 830.652344 424.300781 836.738281 430 844 430 C 848.398438 430 854.21875 426.710938 856.378906 423 C 858.886719 418.699219 858.90625 411.195312 856.425781 407 C 852.601562 400.539062 843.898438 398.21875 837 401.8125 "/>
</g>
</svg>
